<svg id="Layer_1" data-name="Layer 1" xmlns="http://www.w3.org/2000/svg" viewBox="0 0 512 512"><title>Artboard 1</title><rect width="512" height="512"/><path d="M171.45,210.07c15.44.65,30.66.56,45.71,2.13,16.15,1.68,26.63,14.8,27.31,32,.38,9.43-1.45,18.17-8,25.38A35.35,35.35,0,0,1,224.05,278c-.84.37-1.69.71-2.74,1.14l29.08,54.71h-6.17c-5.88,0-11.77,0-17.66,0a2.82,2.82,0,0,1-2.93-1.78q-12.87-24.42-25.94-48.74c-.47-.89-1.56-1.46-2.36-2.17l-.76.54v52H171.45Zm23.3,23.06v26.15c6.31-.58,12.4-1,18.46-1.75a8.85,8.85,0,0,0,6.7-4.22c3.57-5.93,2.58-17-7.72-18.82C206.55,233.48,200.71,233.56,194.75,233.13Z" style="fill:#fff"/><path d="M268.21,210.81h23.42c.05,1,.12,1.93.12,2.83q.06,39.81.12,79.6a42.47,42.47,0,0,0,.68,7.89c1.71,8.89,8.91,13.74,18.81,13,7.61-.6,15.37-5.52,15.92-15.33.27-4.85.62-9.71.63-14.56.06-23.46,0-46.93,0-70.39v-3h23.4c.05.8.15,1.61.15,2.42,0,25.51.06,51-.06,76.54a108.23,108.23,0,0,1-1.16,15.79c-2.46,15.82-16.1,28.76-32,30.76-11.47,1.45-22.43.32-32.48-6-11.22-7.08-16.26-17.59-16.92-30.42-.44-8.43-.58-16.88-.61-25.31-.09-20.4,0-40.79,0-61.18Z" style="fill:#fff"/><path d="M97.06,282v51.62H73.87V210.92a14.2,14.2,0,0,1,1.88-.23c11.35.07,22.7,0,34,.31,6.47.19,13,.94,18.95,3.73,11.42,5.36,17.06,14.85,18.1,27.08a47,47,0,0,1-.77,13.71c-2.86,13.31-14.46,23.5-28.16,25C111.05,281.27,104.16,281.51,97.06,282Zm.1-22.89c6.24-.39,12.21-.44,18.08-1.23,5.4-.73,8.88-5.32,9.09-10.8.22-6.11-2.63-10.51-8.08-12.12-6.21-1.85-12.59-1.46-19.09-1.43Z" style="fill:#fff"/><path d="M379.58,210.78h60.76v22.64H402.82v22.2h37.51v22.83h-37.6v55.27H379.58Z" style="fill:#fff"/><path d="M303.2,189.17a11.79,11.79,0,0,1-12,12A12,12,0,0,1,279.12,189a11.76,11.76,0,0,1,12.05-11.88A11.63,11.63,0,0,1,303.2,189.17Z" style="fill:#fff"/><path d="M328.35,177.07A11.78,11.78,0,0,1,340.41,189a12,12,0,0,1-12.11,12.19,11.76,11.76,0,0,1-12-12.22A11.6,11.6,0,0,1,328.35,177.07Z" style="fill:#fff"/></svg>