<svg xmlns="http://www.w3.org/2000/svg" viewBox="0 0 154.67 29.07"><title>am4a-logo_mod</title><g id="Layer_1" data-name="Layer 1"><path d="M50.15,22.61A43.06,43.06,0,0,1,33.73,26a43.5,43.5,0,0,1-21.52-5.64c-.54-.31-.93.23-.48.64a31.91,31.91,0,0,0,21.5,8.12c5.94,0,12.85-1.86,17.61-5.35C51.63,23.14,51,22.27,50.15,22.61Z" style="fill:#fff;fill-rule:evenodd"/><path d="M47.14,20.65c-.42.28-.34.72.12.64,1.53-.19,5-.59,5.56.18s-.67,4-1.25,5.4c-.17.43.2.6.59.28,2.55-2.16,3.22-6.58,2.7-7.21S49.87,18.74,47.14,20.65Z" style="fill:#fff;fill-rule:evenodd"/><path d="M56.46,15.26a9.2,9.2,0,0,0-4.75-1L56,8.11a2.66,2.66,0,0,0,.64-1.19V5.34a.47.47,0,0,0-.47-.47H47.84a.46.46,0,0,0-.47.44V7.19a.46.46,0,0,0,.46.47h4.34l-5,7.14a2.17,2.17,0,0,0-.31,1.27V18c0,.27.3.58.59.42a9.64,9.64,0,0,1,8.81,0c.31.17.61-.15.61-.42V16A.82.82,0,0,0,56.46,15.26Z" style="fill:#fff;fill-rule:evenodd"/><path d="M63.83,4.63c-3.67,0-5.7,3.14-5.7,7.17s2,7.21,5.7,7.21,5.77-3.14,5.77-7.09S67.6,4.63,63.83,4.63Zm0,11.72c-2,0-2-3.38-2-5s.12-4.11,2-4.11a1.58,1.58,0,0,1,1.66,1.25A11.37,11.37,0,0,1,65.89,12C65.89,13.62,65.8,16.35,63.83,16.35Z" style="fill:#fff;fill-rule:evenodd"/><path d="M36,10.87A4.31,4.31,0,0,0,33.25,15a3.59,3.59,0,0,0,3.8,3.94,5,5,0,0,0,4.18-1.84,6.45,6.45,0,0,0,1.44,1.68.54.54,0,0,0,.61-.06l1.94-1.66a.47.47,0,0,0,0-.67h0A3.48,3.48,0,0,1,44.27,14V10.1c0-1.66.12-3.19-1.12-4.32a5.72,5.72,0,0,0-3.77-1.27c-2.42,0-5.11.89-5.68,3.86a.46.46,0,0,0,.36.53h0l2.43.26A.55.55,0,0,0,37,8.67a1.93,1.93,0,0,1,2-1.49,1.78,1.78,0,0,1,1.44.66A4.35,4.35,0,0,1,40.77,10,17.41,17.41,0,0,0,36,10.87Zm4.29,4.39a2.07,2.07,0,0,1-1.75,1.15c-1,0-1.55-.73-1.55-1.83C37,12.42,38.89,12,40.72,12v.54A4.86,4.86,0,0,1,40.25,15.26Z" style="fill:#fff;fill-rule:evenodd"/><path d="M12,16.38A3.45,3.45,0,0,1,11,14V10.1c0-1.66.12-3.19-1.11-4.32A5.75,5.75,0,0,0,6.09,4.52C3.67,4.52,1,5.42.41,8.39a.46.46,0,0,0,.36.52h0l2.43.26a.55.55,0,0,0,.48-.49,1.93,1.93,0,0,1,2-1.48,1.78,1.78,0,0,1,1.44.65A4.51,4.51,0,0,1,7.48,10a17.68,17.68,0,0,0-4.77.87A4.32,4.32,0,0,0,0,15,3.59,3.59,0,0,0,3.8,19,5.05,5.05,0,0,0,8,17.11a6.45,6.45,0,0,0,1.44,1.68.51.51,0,0,0,.6-.06l2-1.66a.49.49,0,0,0,0-.68ZM7,15.26a2.07,2.07,0,0,1-1.76,1.15c-1,0-1.54-.73-1.54-1.83C3.7,12.42,5.64,12,7.48,12v.54A5,5,0,0,1,7,15.26Z" style="fill:#fff;fill-rule:evenodd"/><path d="M14.44,18.75H17a.48.48,0,0,0,.48-.48V11.42c0-1.5-.07-3.61,1.75-3.61s1.57,2.16,1.57,3.61v6.86a.48.48,0,0,0,.45.47h2.53a.48.48,0,0,0,.49-.46h0V11.42a7.93,7.93,0,0,1,.24-2.48A1.67,1.67,0,0,1,26,7.88,1.32,1.32,0,0,1,27.49,9a16.45,16.45,0,0,1,.07,2.43v6.86a.49.49,0,0,0,.45.47h2.53a.47.47,0,0,0,.49-.46h0V10.11c0-1.39.17-3-.64-4.06a3.74,3.74,0,0,0-5.26-.61A3.78,3.78,0,0,0,24,7c-.72-1.63-1.71-2.4-3.29-2.4A3.33,3.33,0,0,0,17.33,7h0V5.37a.48.48,0,0,0-.48-.46H14.44a.46.46,0,0,0-.47.46v12.9A.48.48,0,0,0,14.44,18.75Z" style="fill:#fff;fill-rule:evenodd"/><path d="M78.31,4.63c-1.75,0-2.75.85-3.45,2.62h0v-2a.47.47,0,0,0-.48-.36H72a.47.47,0,0,0-.47.46h0v12.9a.48.48,0,0,0,.47.48h2.54a.47.47,0,0,0,.46-.48v-7a5.92,5.92,0,0,1,.41-2.47,1.74,1.74,0,0,1,1.45-1c.58,0,1.58.08,1.58,2.7v7.82a.48.48,0,0,0,.45.41h2.55a.48.48,0,0,0,.48-.41V10.21c0-1.25,0-3-.66-4A3.34,3.34,0,0,0,78.31,4.63Z" style="fill:#fff;fill-rule:evenodd"/><path d="M104.5,5.12A8.93,8.93,0,0,0,99.28,7,3.31,3.31,0,0,0,96,5.12,8.79,8.79,0,0,0,91,6.85L90.86,6a.58.58,0,0,0-.19-.4.76.76,0,0,0-.41-.1H89.13a.46.46,0,0,0-.53.38.33.33,0,0,0,0,.14V18.3a.46.46,0,0,0,.39.52h1.69a.46.46,0,0,0,.53-.39.28.28,0,0,0,0-.13V8.38a7.13,7.13,0,0,1,3.85-1.16,1.91,1.91,0,0,1,1.59.63,3.11,3.11,0,0,1,.49,1.94V18.3a.47.47,0,0,0,.4.52h1.68a.46.46,0,0,0,.53-.39.28.28,0,0,0,0-.13V8.77a2.67,2.67,0,0,0,0-.4,7.54,7.54,0,0,1,3.88-1.18,1.86,1.86,0,0,1,1.58.64,3.09,3.09,0,0,1,.51,1.94v8.5a.45.45,0,0,0,.39.52.29.29,0,0,0,.13,0h1.56a.46.46,0,0,0,.53-.38V9.06a4.07,4.07,0,0,0-1-2.89A3.71,3.71,0,0,0,104.5,5.12Z" style="fill:#fff;fill-rule:evenodd"/><path d="M122.87,5.52h-1.56a.45.45,0,0,0-.52.38.33.33,0,0,0,0,.14v9.82A7,7,0,0,1,117,17.12a2.18,2.18,0,0,1-1.77-.67,3.21,3.21,0,0,1-.55-2.08V6a.47.47,0,0,0-.39-.52h-1.7a.45.45,0,0,0-.52.38A.33.33,0,0,0,112,6V15.2a4,4,0,0,0,1,2.94,3.76,3.76,0,0,0,2.88,1.06,8.48,8.48,0,0,0,5-1.81l.18.91a.56.56,0,0,0,.2.4.63.63,0,0,0,.4.1h1.14a.46.46,0,0,0,.53-.39.29.29,0,0,0,0-.13V6a.46.46,0,0,0-.41-.51Z" style="fill:#fff;fill-rule:evenodd"/><path d="M133.11,11.58l-2.06-.79a5.28,5.28,0,0,1-1.66-.87A1.4,1.4,0,0,1,129,8.85c0-1.14.85-1.71,2.54-1.71a9.66,9.66,0,0,1,2.88.43,2.55,2.55,0,0,0,.61.13c.23,0,.35-.16.35-.48V6.5A.84.84,0,0,0,135.2,6a.93.93,0,0,0-.45-.28,9.58,9.58,0,0,0-3.35-.6,5.46,5.46,0,0,0-3.49,1,3.28,3.28,0,0,0-1.33,2.75q0,2.6,2.92,3.68l2.17.85a4.75,4.75,0,0,1,1.49.79,1.35,1.35,0,0,1,.4,1,1.69,1.69,0,0,1-.67,1.44,3.22,3.22,0,0,1-2,.5,12,12,0,0,1-3.61-.55,2.47,2.47,0,0,0-.65-.16c-.22,0-.32.16-.32.47v.72a.86.86,0,0,0,.12.5.88.88,0,0,0,.44.29,10.21,10.21,0,0,0,4,.72,5.81,5.81,0,0,0,3.72-1,3.61,3.61,0,0,0,1.38-3,3.26,3.26,0,0,0-.72-2.16A5.44,5.44,0,0,0,133.11,11.58Z" style="fill:#fff;fill-rule:evenodd"/><rect x="138.8" y="5.52" width="2.61" height="13.31" rx="0.53" style="fill:#fff"/><path d="M140.12,0a1.59,1.59,0,0,0-1.19.44,1.69,1.69,0,0,0,0,2.28,1.86,1.86,0,0,0,2.39,0,1.69,1.69,0,0,0,0-2.28A1.62,1.62,0,0,0,140.12,0Z" style="fill:#fff;fill-rule:evenodd"/><path d="M154.34,16.54a1.89,1.89,0,0,0-.4.08,8.21,8.21,0,0,1-2.37.37,4,4,0,0,1-3.12-1.12,5.14,5.14,0,0,1-1-3.49V12a5.33,5.33,0,0,1,1-3.57,4.09,4.09,0,0,1,3.18-1.11,8.43,8.43,0,0,1,2.17.31,1.2,1.2,0,0,0,.42.08c.22,0,.34-.17.34-.52V6.51a.82.82,0,0,0-.12-.53.93.93,0,0,0-.41-.26,8,8,0,0,0-2.79-.5,6.27,6.27,0,0,0-4.82,1.83,7.27,7.27,0,0,0-1.7,5.15,7.33,7.33,0,0,0,1.65,5.14,6.18,6.18,0,0,0,4.77,1.78,7.59,7.59,0,0,0,3-.56.87.87,0,0,0,.42-.29.93.93,0,0,0,.11-.49v-.73C154.69,16.7,154.57,16.54,154.34,16.54Z" style="fill:#fff;fill-rule:evenodd"/></g></svg>