<?xml version="1.0" encoding="UTF-8" standalone="no"?>
<svg
   xmlns:dc="http://purl.org/dc/elements/1.1/"
   xmlns:cc="http://creativecommons.org/ns#"
   xmlns:rdf="http://www.w3.org/1999/02/22-rdf-syntax-ns#"
   xmlns:svg="http://www.w3.org/2000/svg"
   xmlns="http://www.w3.org/2000/svg"
   viewBox="0 0 1003 132.74667"
   height="132.74667"
   width="1003"
   xml:space="preserve"
   id="svg2"
   version="1.1"><metadata
     id="metadata8"><rdf:RDF><cc:Work
         rdf:about=""><dc:format>image/svg+xml</dc:format><dc:type
           rdf:resource="http://purl.org/dc/dcmitype/StillImage" /></cc:Work></rdf:RDF></metadata><defs
     id="defs6" /><g
     transform="matrix(1.3333333,0,0,-1.3333333,0,132.74667)"
     id="g10"><g
       transform="scale(0.1)"
       id="g12"><path
         id="path14"
         style="fill:#ffffff;fill-opacity:1;fill-rule:nonzero;stroke:none"
         d="M 2737.16,20.2813 H 2544.07 V 705.184 h -249.73 v 165.5 h 692.55 v -165.5 H 2737.16 V 20.2813" /><path
         id="path16"
         style="fill:#ffffff;fill-opacity:1;fill-rule:nonzero;stroke:none"
         d="M 3758.94,20.2813 H 3564.71 V 870.676 h 194.23 V 20.2813" /><path
         id="path18"
         style="fill:#ffffff;fill-opacity:1;fill-rule:nonzero;stroke:none"
         d="m 7186.6,188.098 h 335.93 V 20.2813 H 6992.37 V 870.684 H 7186.6 V 188.098" /><path
         id="path20"
         style="fill:#ffffff;fill-opacity:1;fill-rule:nonzero;stroke:none"
         d="m 4594.01,186.953 h 120.45 c 162.04,0 270.09,101.094 270.09,261.992 0,152.852 -109.19,256.239 -265.5,256.239 h -125.04 z m -188.47,683.731 h 314.66 c 232.16,0 463.17,-122.93 463.17,-422.891 0,-282.734 -226.42,-427.4883 -451.67,-427.4883 L 4405.54,20.293 v 850.391" /><path
         id="path22"
         style="fill:#ffffff;fill-opacity:1;fill-rule:nonzero;stroke:none"
         d="M 5892.68,339.148 6020.77,671.75 6147.68,339.148 Z M 6261.31,20.2813 H 6474.8 L 6124.48,870.684 H 5923.96 L 5570.2,20.2813 h 207.74 l 62.68,167.7927 h 358.56 l 62.13,-167.7927" /><path
         id="path24"
         style="fill:#ffffff;fill-opacity:1;fill-rule:nonzero;stroke:none"
         d="M 995.66,746.777 746.746,497.852 497.832,746.777 746.746,995.633 995.66,746.777" /><path
         id="path26"
         style="fill:#ffffff;fill-opacity:1;fill-rule:nonzero;stroke:none"
         d="M 995.66,248.926 746.746,0 497.832,248.926 746.746,497.852 995.66,248.926" /><path
         id="path28"
         style="fill:#ffffff;fill-opacity:1;fill-rule:nonzero;stroke:none"
         d="M 497.832,746.758 248.91,497.832 0,746.758 248.91,995.625 497.832,746.758" /><path
         id="path30"
         style="fill:#ffffff;fill-opacity:1;fill-rule:nonzero;stroke:none"
         d="M 1493.46,746.758 1244.56,497.832 995.629,746.758 1244.56,995.625 1493.46,746.758" /></g></g></svg>